<svg xmlns="http://www.w3.org/2000/svg" viewBox="0 0 64 64">
  <defs>
    <linearGradient id="g" x1="0%" y1="0%" x2="100%" y2="100%">
      <stop offset="0%" stop-color="#6366f1"/>
      <stop offset="100%" stop-color="#8b5cf6"/>
    </linearGradient>
  </defs>
  <circle cx="32" cy="32" r="30" fill="url(#g)" opacity="0.15"/>
  <path d="M32 8C20 8 14 18 14 26c0 6 3 10 6 13 2 2 3 4 3 7v2a2 2 0 002 2h14a2 2 0 002-2v-2c0-3 1-5 3-7 3-3 6-7 6-13 0-8-6-18-18-18z" fill="none" stroke="url(#g)" stroke-width="2.5" stroke-linecap="round" stroke-linejoin="round"/>
  <path d="M24 52h16M26 56h12" stroke="url(#g)" stroke-width="2.5" stroke-linecap="round"/>
  <path d="M32 20v10M27 25l5 5 5-5" stroke="url(#g)" stroke-width="2" stroke-linecap="round" stroke-linejoin="round" opacity="0.7"/>
</svg>
